<svg xmlns="http://www.w3.org/2000/svg" xmlns:xlink="http://www.w3.org/1999/xlink" width="46.055" height="46.103" viewBox="0 0 46.055 46.103">
  <defs>
    <linearGradient id="linear-gradient" x1="0.5" x2="0.5" y2="1" gradientUnits="objectBoundingBox">
      <stop offset="0" stop-color="#615cfd"/>
      <stop offset="1" stop-color="#d465ef"/>
    </linearGradient>
  </defs>
  <g id="email" transform="translate(0)">
    <path id="Path_255" data-name="Path 255" d="M46.316,203.133a1.953,1.953,0,0,1-.576,1.439,2.08,2.08,0,0,1-1.343.48H2.18a2.293,2.293,0,0,1-1.343-.48,1.953,1.953,0,0,1-.576-1.439V175.02H46.316v28.113Z" transform="translate(-0.261 -158.949)" fill="#ffd15c"/>
    <path id="Path_256" data-name="Path 256" d="M51.434,306.111a2.08,2.08,0,0,1-1.343.48H7.873a2.293,2.293,0,0,1-1.343-.48l22.452-19.286Z" transform="translate(-5.954 -260.487)" fill="#f8b64c"/>
    <path id="Path_257" data-name="Path 257" d="M46.316,16.072l-6.524,4.7L24.536,31.711a2.159,2.159,0,0,1-2.591,0L6.785,20.773l-6.524-4.7,6.524-4.7L20.986,1.2,22.041.432a2.159,2.159,0,0,1,2.591,0l1.055.768L32.5,6.093l3.358,2.4,3.934,2.878Z" transform="translate(-0.261 0)" fill="url(#linear-gradient)"/>
    <path id="Path_258" data-name="Path 258" d="M104.32,19.01V32.634L89.064,43.573a2.159,2.159,0,0,1-2.591,0L71.314,32.634V14.98a1.925,1.925,0,0,1,1.919-1.919H98.275Z" transform="translate(-64.79 -11.862)" fill="#f2f2f2"/>
    <path id="Path_259" data-name="Path 259" d="M365.974,17.475a1.515,1.515,0,0,0,1.535,1.535h4.414l-5.949-5.949v4.414Z" transform="translate(-332.392 -11.862)" fill="#cdd6e0"/>
    <path id="Path_260" data-name="Path 260" d="M185.526,113.957h1.535a5.069,5.069,0,0,1-2.3,2.4,8.461,8.461,0,0,1-4.318.959,9.466,9.466,0,0,1-4.222-.864,5.659,5.659,0,0,1-2.687-2.495,7.471,7.471,0,0,1-.864-3.55,7.962,7.962,0,0,1,.959-3.934,6.058,6.058,0,0,1,2.687-2.687,8.775,8.775,0,0,1,3.934-.864,7.527,7.527,0,0,1,3.358.768,4.71,4.71,0,0,1,2.207,2.111,6.233,6.233,0,0,1,.768,2.974,5.749,5.749,0,0,1-1.151,3.454,4.315,4.315,0,0,1-3.742,1.919,2.407,2.407,0,0,1-.959-.192.971.971,0,0,1-.384-.672,2.762,2.762,0,0,1-2.015.864,2.478,2.478,0,0,1-2.015-.864,3.112,3.112,0,0,1-.864-2.3,5.864,5.864,0,0,1,.959-3.262,3.569,3.569,0,0,1,3.07-1.727,2.376,2.376,0,0,1,2.015,1.055l.192-.864H183.7l-1.151,5.373a2.531,2.531,0,0,0-.1.672.353.353,0,0,0,.1.288c.1.1.1.1.192.1a2.172,2.172,0,0,0,.959-.48,4,4,0,0,0,1.247-1.535,5.156,5.156,0,0,0,.48-2.015,3.99,3.99,0,0,0-1.343-3.07,5.049,5.049,0,0,0-3.742-1.247,6.592,6.592,0,0,0-3.454.864,5.421,5.421,0,0,0-2.111,2.3,6.951,6.951,0,0,0-.672,3.166,5.862,5.862,0,0,0,.768,2.878,4.759,4.759,0,0,0,2.207,1.919,8.606,8.606,0,0,0,3.262.576,9.821,9.821,0,0,0,3.07-.48A5.723,5.723,0,0,0,185.526,113.957Zm-8.156-3.07a2.144,2.144,0,0,0,.384,1.439,1.332,1.332,0,0,0,.959.48,1.807,1.807,0,0,0,.768-.192,2.544,2.544,0,0,0,.576-.48,3.5,3.5,0,0,0,.672-1.343,5.322,5.322,0,0,0,.288-1.631,2.03,2.03,0,0,0-.384-1.343,1.332,1.332,0,0,0-.959-.48,1.771,1.771,0,0,0-1.151.48,2.636,2.636,0,0,0-.864,1.439A5.326,5.326,0,0,0,177.37,110.887Z" transform="translate(-156.838 -93.472)" fill="#ff7058"/>
  </g>
</svg>
