<svg id="https:_www.flaticon.com_free-icon_graph_775480" data-name="https://www.flaticon.com/free-icon/graph_775480" xmlns="http://www.w3.org/2000/svg" width="42.065" height="42.065" viewBox="0 0 42.065 42.065">
  <g id="Group_73" data-name="Group 73" transform="translate(0 0)">
    <g id="Group_72" data-name="Group 72">
      <path id="Path_212" data-name="Path 212" d="M161.554,36.722a13.309,13.309,0,1,1-7.969,14.885A13.309,13.309,0,0,1,161.554,36.722ZM155.57,53.57a11.942,11.942,0,1,0,19.49-13h0a11.942,11.942,0,0,0-19.49,13Z" transform="translate(-150.478 -32.859)" fill="#615cfd"/>
      <path id="Path_213" data-name="Path 213" d="M4.726,5.727A16.136,16.136,0,0,1,28.937,26.962L30.176,28.2a1.4,1.4,0,0,1,1.35.357l8.931,8.931a1.4,1.4,0,0,1,.357,1.35l.635.635a2.1,2.1,0,0,1,0,2.974l-.5-.5.494.5a2.1,2.1,0,0,1-2.974,0l-.635-.635a1.363,1.363,0,0,1-1.35-.358l-8.931-8.931a1.4,1.4,0,0,1-.357-1.35l-1.239-1.239A16.136,16.136,0,0,1,4.726,5.727ZM39.465,41.458a.717.717,0,0,0,.991,0l0,0h0a.7.7,0,0,0,0-.991l-.5-.5-.993.993Zm-1.985-.993.993-.993.992-.992h0l-6.947-6.947-1.986,1.985Zm-7.938-7.938,1.986-1.985-.993-.993h0l-.992.992-.993.993Zm-1.488-2.481.5-.5.5-.5-1.018-1.018c-.159.173-.3.354-.472.522s-.349.313-.522.471Zm-17.545.713a14.734,14.734,0,1,0-9.1-13.613A14.734,14.734,0,0,0,10.509,30.761Z" transform="translate(0 -1.001)" fill="#615cfd"/>
      <path id="Path_214" data-name="Path 214" d="M216.843,109.143a1.4,1.4,0,0,1,1.4,1.4v3.5h1.4v-6.308a1.4,1.4,0,0,1,1.4-1.4h2.1a1.4,1.4,0,0,1,1.4,1.4v6.308h1.4v-9.112a1.4,1.4,0,0,1,1.4-1.4h2.1a1.4,1.4,0,0,1,1.4,1.4v9.812a.7.7,0,0,1-.7.7H214.04a.7.7,0,0,1-.7-.7v-4.205a1.4,1.4,0,0,1,1.4-1.4Zm10.513,4.906h2.1v-9.111h-2.1Zm-6.308,0h2.1v-6.308h-2.1Zm-6.308,0h2.1v-3.5h-2.1Z" transform="translate(-206.319 -95.114)" fill="#615cfd"/>
      <path id="Path_215" data-name="Path 215" d="M384.71,265.67h.7a.7.7,0,0,1,0,1.4h-.7a.7.7,0,0,1,0-1.4Z" transform="translate(-375.587 -243.931)" fill="#615cfd"/>
      <path id="Path_216" data-name="Path 216" d="M307.91,265.67h.7a.7.7,0,0,1,0,1.4h-.7a.7.7,0,0,1,0-1.4Z" transform="translate(-292.479 -243.931)" fill="#615cfd"/>
      <path id="Path_217" data-name="Path 217" d="M231.11,265.67h.7a.7.7,0,0,1,0,1.4h-.7a.7.7,0,1,1,0-1.4Z" transform="translate(-209.371 -243.931)" fill="#615cfd"/>
    </g>
  </g>
</svg>
