<svg id="https:_www.flaticon.com_free-icon_promotion_1077221" data-name="https://www.flaticon.com/free-icon/promotion_1077221" xmlns="http://www.w3.org/2000/svg" width="44.383" height="41.999" viewBox="0 0 44.383 41.999">
  <path id="Path_218" data-name="Path 218" d="M123.264,291.193a.867.867,0,1,0-1.184-.317A.867.867,0,0,0,123.264,291.193Zm0,0" transform="translate(-111.391 -264.473)" fill="#ff008c"/>
  <path id="Path_219" data-name="Path 219" d="M8.321,53.121l4.366,7.562a3.467,3.467,0,1,0,6.006-3.467l-2.6-4.505,2.252-1.3a.867.867,0,0,0,.317-1.184l-1.127-1.952,16.6-3.257a2.6,2.6,0,0,0,2.108-3.9l-2.881-4.99,1.841-2.789a.867.867,0,0,0,.027-.911l-1.734-3A.869.869,0,0,0,32.7,29l-3.335.2-3.2-5.54a2.578,2.578,0,0,0-2.22-1.3H23.91a2.578,2.578,0,0,0-2.19,1.2L10.4,37.98l-7.362,4.25a6.068,6.068,0,0,0,5.286,10.89Zm8.87,4.962a1.734,1.734,0,0,1-3,1.733L9.853,52.308l3-1.734Zm-1.966-6.874-.867-1.5,1.5-.867.867,1.5Zm17.041-20.45,1.2,2.075L32.4,34.451,30.33,30.874Zm-9.1-6.253a.867.867,0,0,1,1.491.017L34.744,41.987a.867.867,0,0,1-.729,1.3,3.182,3.182,0,0,0-.475.081L22.874,24.893C23.1,24.606,23.126,24.578,23.171,24.505ZM21.72,26.363,31.741,43.72,16.617,46.686l-4.6-7.965ZM2.315,49.653A4.331,4.331,0,0,1,3.9,43.732l6.757-3.9,4.334,7.507-6.757,3.9A4.34,4.34,0,0,1,2.315,49.653Zm0,0" transform="translate(0 -20.418)" fill="#ff008c"/>
  <path id="Path_220" data-name="Path 220" d="M48.17,310.006a.867.867,0,0,0-1.184-.317l-1.5.867a.868.868,0,0,1-1.184-.317.867.867,0,1,0-1.5.867,2.6,2.6,0,0,0,3.552.952l1.5-.867A.867.867,0,0,0,48.17,310.006Zm0,0" transform="translate(-38.982 -282.737)" fill="#ff008c"/>
  <path id="Path_221" data-name="Path 221" d="M441.551,42.591l-4.83,2.688a.867.867,0,1,0,.843,1.515l4.83-2.688a.867.867,0,0,0-.843-1.515Zm0,0" transform="translate(-398.455 -38.798)" fill="#ff008c"/>
  <path id="Path_222" data-name="Path 222" d="M444.5,137.549l-3.349-.9a.867.867,0,1,0-.449,1.674l3.35.9a.867.867,0,1,0,.448-1.674Zm0,0" transform="translate(-401.915 -124.778)" fill="#ff008c"/>
  <path id="Path_223" data-name="Path 223" d="M384.421.643l-.9,3.35a.867.867,0,0,0,1.675.449l.9-3.35a.867.867,0,1,0-1.674-.449Zm0,0" transform="translate(-350.249 0)" fill="#ff008c"/>
</svg>
